<mxfile host="app.diagrams.net" modified="2023-08-13T19:07:05.590Z" agent="Mozilla/5.0 (Windows NT 10.0; Win64; x64) AppleWebKit/537.36 (KHTML, like Gecko) Chrome/115.0.0.0 Safari/537.36" version="21.6.8" etag="_nFAOUl3vb5PhBzZTYiw" type="github">
  <diagram name="PÃ¡gina-1" id="1ayg4WeLplQLEeBYn9fc">
    <mxGraphModel>
      <root>
        <mxCell id="0" />
        <mxCell id="1" parent="0" />
      </root>
    </mxGraphModel>
  </diagram>
</mxfile>
